mtllib unnamed.mtl
# vertices
v -176 -16 -64
v -176 -16 192
v -128 16 128
v -128 16 -64
v 64 16 128
v 64 -16 192
v 64 -16 -64
v 64 16 -64
v -112 16 -48
v -112 16 -32
v -112 144 -32
v -112 144 -48
v -96 144 -32
v -96 16 -32
v -96 16 -48
v -96 144 -48
v -384 -16 -80
v -384 -16 -64
v -384 144 -64
v -384 144 -80
v 64 144 -64
v 64 -16 -64
v 64 -16 -80
v 64 144 -80
v -112 16 96
v -112 16 112
v -112 144 112
v -112 144 96
v -96 144 112
v -96 16 112
v -96 16 96
v -96 144 96
v 32 16 96
v 32 16 112
v 32 144 112
v 32 144 96
v 48 144 112
v 48 16 112
v 48 16 96
v 48 144 96
v 64 -16 -80
v 64 -16 240
v 64 144 240
v 64 144 -80
v 80 144 240
v 80 -16 240
v 80 -16 -80
v 80 144 -80
v -400 -48 -80
v -400 -48 256
v -400 -16 256
v -400 -16 -80
v 80 -16 256
v 80 -48 256
v 80 -48 -80
v 80 -16 -80
v -208 -16 208
v -208 -16 224
v -208 144 224
v -208 144 208
v -192 144 224
v -192 -16 224
v -192 -16 208
v -192 144 208
v -224 -16 -32
v -224 -16 -16
v -224 144 -16
v -224 144 -32
v -208 144 -16
v -208 -16 -16
v -208 -16 -32
v -208 144 -32
v -336 -16 -32
v -336 -16 -0
v -336 0 -0
v -336 0 -32
v -240 0 -0
v -240 -16 -0
v -240 -16 -32
v -240 0 -32
v -368 -16 -32
v -368 -16 -16
v -368 144 -16
v -368 144 -32
v -352 144 -16
v -352 -16 -16
v -352 -16 -32
v -352 144 -32
v -368 -16 208
v -368 -16 224
v -368 144 224
v -368 144 208
v -352 144 224
v -352 -16 224
v -352 -16 208
v -352 144 208
v -336 -16 192
v -336 -16 224
v -336 0 224
v -336 0 192
v -240 0 224
v -240 -16 224
v -240 -16 192
v -240 0 192
v -400 -16 -80
v -400 -16 240
v -400 144 240
v -400 144 -80
v -384 144 240
v -384 -16 240
v -384 -16 -80
v -384 144 -80
v -400 -16 240
v -400 -16 256
v -400 144 256
v -400 144 240
v 80 144 256
v 80 -16 256
v 80 -16 240
v 80 144 240
v -400 144 -80
v -400 144 256
v -400 176 256
v -400 176 -80
v 80 176 256
v 80 144 256
v 80 144 -80
v 80 176 -80

# texture coordinates
vt -1 2.7378592
vt 3 2.7378592
vt 2 1.9878592
vt -1 1.9878592
vt 1 2
vt -2 2
vt -2.75 3
vt 1 3
vt -1 -3
vt 2.75 -3
vt 2.75 1
vt -1 1
vt 1 1
vt -2 1
vt -2 -2
vt 1 -2
vt -1 -0.25
vt 2.75 -0.25
vt 2 0.25
vt -1 0.25
vt 1 0.25
vt -2 0.25
vt -3 -0.25
vt 1 -0.25
vt -0.75 0.25
vt -0.5 0.25
vt -0.5 2.25
vt -0.75 2.25
vt -1.5 2.25
vt -1.75 2.25
vt -1.75 0.25
vt -1.5 0.25
vt 1.5 0.5
vt 1.75 0.5
vt 1.75 0.75
vt 1.5 0.75
vt -1.5 0.75
vt -1.75 0.75
vt -1.75 0.5
vt -1.5 0.5
vt 1.5 0.25
vt 1.75 0.25
vt 1.75 2.25
vt 1.5 2.25
vt 0.75 2.25
vt 0.5 2.25
vt 0.5 0.25
vt 0.75 0.25
vt -1.25 -0.25
vt -1 2.25
vt -1.25 2.25
vt 1 2.25
vt -6 2.25
vt -6 -0.25
vt 6 1
vt 6 1.25
vt -1 1.25
vt 1 1.25
vt -6 1.25
vt -6 1
vt 6 -0.25
vt 6 2.25
vt 1.25 2.25
vt 1.25 -0.25
vt 1.5 -1.75
vt 1.75 -1.75
vt 1.75 -1.5
vt 1.5 -1.5
vt -1.5 -1.5
vt -1.75 -1.5
vt -1.75 -1.75
vt -1.5 -1.75
vt -0.75 -1.75
vt -0.5 -1.75
vt -0.5 -1.5
vt -0.75 -1.5
vt 0.75 -1.5
vt 0.5 -1.5
vt 0.5 -1.75
vt 0.75 -1.75
vt 3.75 -0.25
vt 3.75 2.25
vt -3.75 1.25
vt -3.75 1
vt 1.25 1
vt 1.25 1.25
vt -1.25 1.25
vt -1.25 1
vt 3.75 1
vt 3.75 1.25
vt -3.75 2.25
vt -3.75 -0.25
vt -1.25 -0.75
vt 4 -0.75
vt 4 -0.25
vt -6.25 -0.25
vt -6.25 -0.75
vt 1.25 -0.75
vt -1.25 -4
vt 6.25 -4
vt 6.25 1.25
vt -6.25 1.25
vt -6.25 -4
vt 1.25 -4
vt 6.25 -0.75
vt 6.25 -0.25
vt -4 -0.25
vt -4 -0.75
vt 3.25 -0.25
vt 3.5 -0.25
vt 3.5 2.25
vt 3.25 2.25
vt -3 2.25
vt -3.25 2.25
vt -3.25 -0.25
vt 3 -3.5
vt 3.25 -3.5
vt 3.25 -3.25
vt 3 -3.25
vt -3 -3.25
vt -3.25 -3.25
vt -3.25 -3.5
vt -3 -3.5
vt 3 -0.25
vt 3 2.25
vt -3.5 2.25
vt -3.5 -0.25
vt -0.5 -0.25
vt -0.25 -0.25
vt -0.25 2.25
vt 3.25 0.25
vt 3.5 0.25
vt 3.5 0.5
vt 3.25 0.5
vt -3.25 0.5
vt -3.5 0.5
vt -3.5 0.25
vt -3.25 0.25
vt 0.25 2.25
vt 0.25 -0.25
vt 0.5 -0.25
vt 0 -0.25
vt 0 -0
vt -0.5 -0
vt -3.75 -0
vt -5.25 -0
vt -5.25 -0.25
vt 3.75 -0
vt 5.25 -0
vt 5.25 0.5
vt 3.75 0.5
vt -3.75 0.5
vt -5.25 0.5
vt 5.25 -0.25
vt 0.5 -0
vt -5.5 2.25
vt -5.75 2.25
vt -5.75 -0.25
vt -5.5 -0.25
vt 5.5 0.25
vt 5.75 0.25
vt 5.75 0.5
vt 5.5 0.5
vt -5.5 0.5
vt -5.75 0.5
vt -5.75 0.25
vt -5.5 0.25
vt 5.5 -0.25
vt 5.75 -0.25
vt 5.75 2.25
vt 5.5 2.25
vt 5.5 -3.5
vt 5.75 -3.5
vt 5.75 -3.25
vt 5.5 -3.25
vt -5.5 -3.25
vt -5.75 -3.25
vt -5.75 -3.5
vt -5.5 -3.5
vt 3.5 -0
vt 3 -0
vt 3.75 -3.5
vt 5.25 -3.5
vt 5.25 -3
vt 3.75 -3
vt -3.75 -3
vt -5.25 -3
vt -5.25 -3.5
vt -3.75 -3.5
vt -3 -0
vt -3.5 -0
vt -3.75 -5.75
vt -3.75 -6
vt 1.25 -6
vt 1.25 -5.75
vt -1.25 -5.75
vt -1.25 -6
vt 3.75 -6
vt 3.75 -5.75
vt 4 2.25
vt -6.5 2.25
vt -6.5 -0.25
vt -1 -4
vt 6.5 -4
vt 6.5 -3.75
vt -1 -3.75
vt 1 -3.75
vt -6.5 -3.75
vt -6.5 -4
vt 1 -4
vt 6.5 -0.25
vt 6.5 2.25
vt -4 2.25
vt 4 2.75
vt -1.25 2.75
vt 1.25 2.75
vt -6.25 2.75
vt -6.25 2.25
vt 6.25 2.25
vt 6.25 2.75
vt -4 2.75

# normals
vn -0.5547001962252291 0.8320502943378437 -0
vn 0 0.8944271909999159 0.4472135954999579
vn 0 -1 -0
vn -0 1 -0
vn 0 -0 -1
vn 1 0 0
vn -1 0 -0
vn -0 0 1

o entity0_brush0
usemtl sfloor4_4
f  1/1/1  2/2/1  3/3/1  4/4/1
usemtl sfloor4_4
f  5/5/2  3/6/2  2/7/2  6/8/2
usemtl sfloor4_4
f  6/9/3  2/10/3  1/11/3  7/12/3
usemtl sfloor4_4
f  8/13/4  4/14/4  3/15/4  5/16/4
usemtl sfloor4_4
f  7/17/5  1/18/5  4/19/5  8/20/5
usemtl sfloor4_4
f  8/21/6  5/22/6  6/23/6  7/24/6

o entity0_brush1
usemtl metal3_2
f  9/25/7  10/26/7  11/27/7  12/28/7
usemtl metal3_2
f  13/29/8  11/30/8  10/31/8  14/32/8
usemtl metal3_2
f  14/33/3  10/34/3  9/35/3  15/36/3
usemtl metal3_2
f  16/37/4  12/38/4  11/39/4  13/40/4
usemtl metal3_2
f  15/41/5  9/42/5  12/43/5  16/44/5
usemtl metal3_2
f  16/45/6  13/46/6  14/47/6  15/48/6

o entity0_brush2
usemtl city6_7
f  17/49/7  18/17/7  19/50/7  20/51/7
usemtl city6_7
f  21/52/8  19/53/8  18/54/8  22/24/8
usemtl city6_7
f  22/12/3  18/55/3  17/56/3  23/57/3
usemtl city6_7
f  24/58/4  20/59/4  19/60/4  21/13/4
usemtl city6_7
f  23/17/5  17/61/5  20/62/5  24/50/5
usemtl city6_7
f  24/63/6  21/52/6  22/24/6  23/64/6

o entity0_brush3
usemtl metal3_2
f  25/41/7  26/42/7  27/43/7  28/44/7
usemtl metal3_2
f  29/29/8  27/30/8  26/31/8  30/32/8
usemtl metal3_2
f  30/65/3  26/66/3  25/67/3  31/68/3
usemtl metal3_2
f  32/69/4  28/70/4  27/71/4  29/72/4
usemtl metal3_2
f  31/41/5  25/42/5  28/43/5  32/44/5
usemtl metal3_2
f  32/29/6  29/30/6  30/31/6  31/32/6

o entity0_brush4
usemtl metal3_2
f  33/41/7  34/42/7  35/43/7  36/44/7
usemtl metal3_2
f  37/45/8  35/46/8  34/47/8  38/48/8
usemtl metal3_2
f  38/73/3  34/74/3  33/75/3  39/76/3
usemtl metal3_2
f  40/77/4  36/78/4  35/79/4  37/80/4
usemtl metal3_2
f  39/25/5  33/26/5  36/27/5  40/28/5
usemtl metal3_2
f  40/29/6  37/30/6  38/31/6  39/32/6

o entity0_brush5
usemtl city6_7
f  41/49/7  42/81/7  43/82/7  44/51/7
usemtl city6_7
f  45/63/8  43/52/8  42/24/8  46/64/8
usemtl city6_7
f  46/83/3  42/84/3  41/85/3  47/86/3
usemtl city6_7
f  48/87/4  44/88/4  43/89/4  45/90/4
usemtl city6_7
f  47/49/5  41/17/5  44/50/5  48/51/5
usemtl city6_7
f  48/63/6  45/91/6  46/92/6  47/64/6

o entity0_brush6
usemtl ground1_2
f  49/93/7  50/94/7  51/95/7  52/49/7
usemtl ground1_2
f  53/64/8  51/96/8  50/97/8  54/98/8
usemtl ground1_2
f  54/99/3  50/100/3  49/101/3  55/87/3
usemtl ground1_2
f  56/86/4  52/102/4  51/103/4  53/104/4
usemtl ground1_2
f  55/93/5  49/105/5  52/106/5  56/49/5
usemtl ground1_2
f  56/64/6  53/107/6  54/108/6  55/98/6

o entity0_brush7
usemtl metal3_2
f  57/109/7  58/110/7  59/111/7  60/112/7
usemtl metal3_2
f  61/113/8  59/114/8  58/115/8  62/23/8
usemtl metal3_2
f  62/116/3  58/117/3  57/118/3  63/119/3
usemtl metal3_2
f  64/120/4  60/121/4  59/122/4  61/123/4
usemtl metal3_2
f  63/124/5  57/109/5  60/112/5  64/125/5
usemtl metal3_2
f  64/114/6  61/126/6  62/127/6  63/115/6

o entity0_brush8
usemtl metal3_2
f  65/128/7  66/129/7  67/130/7  68/27/7
usemtl metal3_2
f  69/114/8  67/126/8  66/127/8  70/115/8
usemtl metal3_2
f  70/131/3  66/132/3  65/133/3  71/134/3
usemtl metal3_2
f  72/135/4  68/136/4  67/137/4  69/138/4
usemtl metal3_2
f  71/109/5  65/110/5  68/111/5  72/112/5
usemtl metal3_2
f  72/46/6  69/139/6  70/140/6  71/141/6

o entity0_brush9
usemtl sfloor4_1
f  73/128/7  74/142/7  75/143/7  76/144/7
usemtl sfloor4_1
f  77/145/8  75/146/8  74/147/8  78/92/8
usemtl sfloor4_1
f  78/148/3  74/149/3  73/150/3  79/151/3
usemtl sfloor4_1
f  80/152/4  76/153/4  75/146/4  77/145/4
usemtl sfloor4_1
f  79/81/5  73/154/5  76/149/5  80/148/5
usemtl sfloor4_1
f  80/155/6  77/143/6  78/142/6  79/141/6

o entity0_brush10
usemtl metal3_2
f  81/128/7  82/129/7  83/130/7  84/27/7
usemtl metal3_2
f  85/156/8  83/157/8  82/158/8  86/159/8
usemtl metal3_2
f  86/160/3  82/161/3  81/162/3  87/163/3
usemtl metal3_2
f  88/164/4  84/165/4  83/166/4  85/167/4
usemtl metal3_2
f  87/168/5  81/169/5  84/170/5  88/171/5
usemtl metal3_2
f  88/46/6  85/139/6  86/140/6  87/141/6

o entity0_brush11
usemtl metal3_2
f  89/109/7  90/110/7  91/111/7  92/112/7
usemtl metal3_2
f  93/156/8  91/157/8  90/158/8  94/159/8
usemtl metal3_2
f  94/172/3  90/173/3  89/174/3  95/175/3
usemtl metal3_2
f  96/176/4  92/177/4  91/178/4  93/179/4
usemtl metal3_2
f  95/168/5  89/169/5  92/170/5  96/171/5
usemtl metal3_2
f  96/114/6  93/126/6  94/127/6  95/115/6

o entity0_brush12
usemtl sfloor4_1
f  97/124/7  98/110/7  99/180/7  100/181/7
usemtl sfloor4_1
f  101/145/8  99/146/8  98/147/8  102/92/8
usemtl sfloor4_1
f  102/182/3  98/183/3  97/184/3  103/185/3
usemtl sfloor4_1
f  104/186/4  100/187/4  99/188/4  101/189/4
usemtl sfloor4_1
f  103/81/5  97/154/5  100/149/5  104/148/5
usemtl sfloor4_1
f  104/190/6  101/191/6  102/127/6  103/23/6

o entity0_brush13
usemtl city6_7
f  105/49/7  106/81/7  107/82/7  108/51/7
usemtl city6_7
f  109/157/8  107/53/8  106/54/8  110/158/8
usemtl city6_7
f  110/192/3  106/193/3  105/194/3  111/195/3
usemtl city6_7
f  112/196/4  108/197/4  107/198/4  109/199/4
usemtl city6_7
f  111/169/5  105/61/5  108/62/5  112/170/5
usemtl city6_7
f  112/63/6  109/91/6  110/92/6  111/64/6

o entity0_brush14
usemtl city6_7
f  113/81/7  114/95/7  115/200/7  116/82/7
usemtl city6_7
f  117/52/8  115/201/8  114/202/8  118/24/8
usemtl city6_7
f  118/203/3  114/204/3  113/205/3  119/206/3
usemtl city6_7
f  120/207/4  116/208/4  115/209/4  117/210/4
usemtl city6_7
f  119/17/5  113/211/5  116/212/5  120/50/5
usemtl city6_7
f  120/91/6  117/213/6  118/107/6  119/92/6

o entity0_brush15
usemtl city6_4
f  121/51/7  122/200/7  123/214/7  124/215/7
usemtl city6_4
f  125/216/8  123/217/8  122/218/8  126/63/8
usemtl city6_4
f  126/99/3  122/100/3  121/101/3  127/87/3
usemtl city6_4
f  128/86/4  124/102/4  123/103/4  125/104/4
usemtl city6_4
f  127/51/5  121/219/5  124/220/5  128/215/5
usemtl city6_4
f  128/216/6  125/221/6  126/213/6  127/63/6

